<?xml version="1.0" encoding="utf-8"?>
<!-- Generator: Adobe Illustrator 16.0.0, SVG Export Plug-In . SVG Version: 6.00 Build 0)  -->
<!DOCTYPE svg PUBLIC "-//W3C//DTD SVG 1.1//EN" "http://www.w3.org/Graphics/SVG/1.1/DTD/svg11.dtd">
<svg version="1.1" id="Layer_1" xmlns="http://www.w3.org/2000/svg" xmlns:xlink="http://www.w3.org/1999/xlink" x="0px" y="0px"
	 width="139.412px" height="160.979px" viewBox="0 0 139.412 160.979" enable-background="new 0 0 139.412 160.979"
	 xml:space="preserve">
<polygon fill="#FFFFFF" stroke="#000000" stroke-miterlimit="10" points="0.5,40.533 69.706,0.578 138.912,40.533 138.912,120.446 
	69.705,160.402 0.5,120.446 "/>
<polygon fill="#FFFFFF" stroke="#000000" stroke-miterlimit="10" points="14.315,48.681 69.409,16.872 124.504,48.681 
	124.504,112.299 69.409,144.107 14.315,112.299 "/>
<polygon fill="#FFFFFF" stroke="#000000" stroke-miterlimit="10" points="28.165,56.506 69.705,32.522 111.247,56.506 
	111.247,104.475 69.705,128.458 28.165,104.475 "/>
<polygon fill="#FFFFFF" stroke="#000000" stroke-miterlimit="10" points="40.702,63.916 69.41,47.341 98.118,63.916 98.118,97.064 
	69.41,113.638 40.702,97.064 "/>
<polygon fill="#FFFFFF" stroke="#000000" stroke-miterlimit="10" points="54.03,71.44 69.705,62.39 85.381,71.44 85.381,89.54 
	69.705,98.59 54.03,89.54 "/>
</svg>
